<svg width="111" height="133" viewBox="0 0 111 133" fill="none" xmlns="http://www.w3.org/2000/svg">
<g clip-path="url(#clip0_1_3795)">
<rect width="111" height="133" rx="10" fill="#0870FF"/>
<g filter="url(#filter0_d_1_3795)">
<path d="M32.1466 53.0517C33.1391 47.4915 37.4915 43.1391 43.0517 42.1466C51.6162 40.6178 60.3838 40.6178 68.9483 42.1466C74.5085 43.1391 78.8609 47.4915 79.8534 53.0517C81.3822 61.6162 81.3822 70.3838 79.8534 78.9483C78.8609 84.5085 74.5085 88.8609 68.9483 89.8534C60.3838 91.3822 51.6162 91.3822 43.0517 89.8534C37.4915 88.8609 33.1391 84.5085 32.1466 78.9483C30.6178 70.3838 30.6178 61.6162 32.1466 53.0517Z" fill="white"/>
</g>
<path fill-rule="evenodd" clip-rule="evenodd" d="M49.1245 48.9092C49.2279 48.8024 49.4088 48.8757 49.4088 49.0243V55.8367H49.4089V70.4878C49.4089 73.2898 51.6803 75.5612 54.4823 75.5612H57.6893C60.4913 75.5612 62.7627 73.2898 62.7627 70.4878V62.2486C62.7627 61.3121 62.0035 60.5528 61.067 60.5528H59.2709V64.8551C59.2709 64.8607 59.271 64.8663 59.271 64.8719V70.7424C59.271 71.6484 58.5365 72.3829 57.6304 72.3829H56.1813C56.1107 72.3874 56.0395 72.3897 55.9678 72.3897C55.8961 72.3897 55.8249 72.3874 55.7543 72.3829H54.3053C53.3993 72.3829 52.6648 71.6484 52.6648 70.7424V69.0934C52.6647 69.0912 52.6647 69.0889 52.6647 69.0867V57.5324C52.6647 56.5959 53.424 55.8367 54.3605 55.8367H64.521C67.186 55.8367 69.3463 57.997 69.3463 60.662V70.0077C69.3463 73.1195 69.3463 81.7104 55.9823 81.7104C42.6183 81.7104 42.6183 73.2628 42.6183 70.0077V60.6514H38.1397C37.9935 60.6514 37.9192 60.4758 38.0208 60.3708L49.1245 48.9092Z" fill="url(#paint0_linear_1_3795)"/>
<path fill-rule="evenodd" clip-rule="evenodd" d="M64.8476 55.8654C67.3599 56.0336 69.3457 58.1248 69.3457 60.6797V70.0254C69.3457 72.7534 69.3457 79.692 60.3424 81.3624L60.0836 81.2983C51.9467 80.2448 49.9355 74.6427 49.8213 72.5141C50.5994 74.3171 52.3932 75.579 54.4816 75.579H57.6886C60.4906 75.579 62.7621 73.3075 62.7621 70.5056V62.2664C62.7621 61.3298 62.0028 60.5706 61.0663 60.5706H59.2737C59.3965 58.1262 61.9242 55.899 64.8476 55.8654Z" fill="url(#paint1_linear_1_3795)"/>
<path fill-rule="evenodd" clip-rule="evenodd" d="M59.2721 60.5701C59.3948 58.1257 61.9225 55.8985 64.846 55.8649C64.7378 55.8576 64.6287 55.8539 64.5188 55.8539H54.3582C53.4217 55.8539 52.6624 56.6131 52.6624 57.5496V64.8785C52.6624 64.882 52.6624 64.8856 52.6624 64.8891V70.7596C52.6624 71.6657 53.3969 72.4002 54.303 72.4002H55.752C55.8226 72.4047 55.8938 72.407 55.9655 72.407C56.0372 72.407 56.1084 72.4047 56.179 72.4002H57.628C58.5341 72.4002 59.2686 71.6657 59.2686 70.7596V64.8891C59.2686 64.8849 59.2686 64.8808 59.2686 64.8766V60.5701L59.2721 60.5701Z" fill="url(#paint2_linear_1_3795)"/>
</g>
<defs>
<filter id="filter0_d_1_3795" x="-12.1104" y="2.45427" width="136.221" height="136.221" filterUnits="userSpaceOnUse" color-interpolation-filters="sRGB">
<feFlood flood-opacity="0" result="BackgroundImageFix"/>
<feColorMatrix in="SourceAlpha" type="matrix" values="0 0 0 0 0 0 0 0 0 0 0 0 0 0 0 0 0 0 127 0" result="hardAlpha"/>
<feOffset dy="4.56463"/>
<feGaussianBlur stdDeviation="21.5552"/>
<feComposite in2="hardAlpha" operator="out"/>
<feColorMatrix type="matrix" values="0 0 0 0 0.152941 0 0 0 0 0.164706 0 0 0 0 0.329412 0 0 0 0.21 0"/>
<feBlend mode="normal" in2="BackgroundImageFix" result="effect1_dropShadow_1_3795"/>
<feBlend mode="normal" in="SourceGraphic" in2="effect1_dropShadow_1_3795" result="shape"/>
</filter>
<linearGradient id="paint0_linear_1_3795" x1="44.3786" y1="51.0968" x2="66.4115" y2="81.697" gradientUnits="userSpaceOnUse">
<stop stop-color="#00FE9F"/>
<stop offset="1" stop-color="#2931FE"/>
</linearGradient>
<linearGradient id="paint1_linear_1_3795" x1="65.2201" y1="59.0998" x2="51.4267" y2="75.6272" gradientUnits="userSpaceOnUse">
<stop stop-color="#5A0DFF"/>
<stop offset="0.295882" stop-color="#0D11FF"/>
<stop offset="1" stop-color="#0692FF"/>
</linearGradient>
<linearGradient id="paint2_linear_1_3795" x1="52.6624" y1="69.8345" x2="63.0683" y2="60.387" gradientUnits="userSpaceOnUse">
<stop stop-color="#2931FD"/>
<stop offset="0.695207" stop-color="#7F38FE"/>
<stop offset="1" stop-color="#9938FA"/>
</linearGradient>
<clipPath id="clip0_1_3795">
<rect width="111" height="133" rx="10" fill="white"/>
</clipPath>
</defs>
</svg>
